<?xml version="1.0" encoding="utf-8"?>
<svg width="246.2019px" height="165.84811px" viewBox="0 0 246.2019 165.84811" version="1.1" xmlns:xlink="http://www.w3.org/1999/xlink" xmlns="http://www.w3.org/2000/svg">
  <g id="Logo" transform="matrix(0.9396926 -0.34202012 0.34202012 0.9396926 0.4284668 75.63763)">
    <g id="FRESH&amp;-FREDDY" transform="translate(-2.9716939E-05 8.999958)">
      <g id="FRESH&amp;" fill="#FFFFFF">
        <path d="M165.081 36.1811Q167.8 37.5053 171.55 37.5053Q173.742 37.5053 176.027 36.9545Q178.312 36.392 180.409 35.0444Q180.421 35.0444 180.421 35.0327L182.249 36.9545L191.659 36.9545L186.117 30.8491Q187.945 28.435 188.742 25.2944Q189.55 22.1538 189.55 18.7553L182.109 18.7553Q182.109 20.4194 181.687 21.9311Q181.277 23.4428 180.55 24.7202L176.085 19.81L177.749 18.6147Q179.988 17.0327 181.183 14.9233Q182.39 12.8022 182.39 10.3647Q182.39 7.93892 181.23 5.93501Q180.081 3.91939 177.96 2.71236Q175.839 1.50533 172.909 1.50533Q169.839 1.50533 167.531 2.81783Q165.234 4.13033 163.956 6.33345Q162.679 8.52486 162.679 11.185Q162.679 13.4467 163.534 15.4155Q164.39 17.3725 165.515 18.9428L165.48 18.9545Q162.773 20.7944 161.12 22.7631Q159.48 24.7319 159.48 27.685Q159.48 30.3803 160.921 32.6186Q162.374 34.8452 165.081 36.1811ZM109.725 10.3061Q110.862 11.2553 111.002 12.9545L120.073 12.9545Q120.049 9.53267 118.373 6.96626Q116.698 4.39986 113.604 2.98189Q110.522 1.56392 106.291 1.56392Q102.155 1.56392 98.9555 2.97017Q95.7563 4.3647 93.9633 6.86079Q92.1703 9.35689 92.182 12.685Q92.1703 16.7749 94.8305 19.142Q97.5023 21.4975 102.131 22.5053L105.612 23.2553Q108.53 23.8764 109.69 24.6733Q110.85 25.4702 110.862 26.6538Q110.85 27.9545 109.678 28.7749Q108.506 29.5952 106.233 29.5952Q103.502 29.5952 101.955 28.3413Q100.42 27.0874 100.291 24.685L91.2914 24.685Q91.3148 29.0678 93.1781 31.8686Q95.0414 34.6694 98.4281 36.017Q101.815 37.3647 106.362 37.3647Q112.995 37.3647 116.756 34.5991Q120.53 31.8217 120.541 26.6538Q120.53 22.6694 117.975 19.9389Q115.42 17.1967 109.631 15.9545L106.772 15.3452Q104.299 14.8178 103.151 14.0327Q102.002 13.2475 102.073 12.0053Q102.084 10.8452 103.092 10.0952Q104.1 9.34517 106.291 9.34517Q108.6 9.34517 109.725 10.3061ZM2.25 2.04439L2.25 36.9545L11.7305 36.9545L11.7305 23.3139L25.3008 23.3139L25.3008 15.685L11.7305 15.685L11.7305 9.68501L26.8008 9.68501L26.8008 2.04439L2.25 2.04439ZM30.2728 2.04439L30.2728 36.9545L39.7533 36.9545L39.7533 25.435L43.0228 25.435L49.1634 36.9545L59.4525 36.9545L52.3626 23.935Q55.14 22.5874 56.7103 20.0678Q58.2923 17.5366 58.2923 13.9038Q58.2923 10.1889 56.6751 7.54048Q55.058 4.88033 52.14 3.46236Q49.222 2.04439 45.3431 2.04439L30.2728 2.04439ZM62.3183 36.9545L62.3183 2.04439L87.4785 2.04439L87.4785 9.68501L71.7988 9.68501L71.7988 15.685L86.1777 15.685L86.1777 23.3139L71.7988 23.3139L71.7988 29.3139L87.4082 29.3139L87.4082 36.9545L62.3183 36.9545ZM124.159 36.9545L124.159 2.04439L133.64 2.04439L133.64 15.685L146.179 15.685L146.179 2.04439L155.659 2.04439L155.659 36.9545L146.179 36.9545L146.179 23.3139L133.64 23.3139L133.64 36.9545L124.159 36.9545ZM173.39 14.0444L171.937 14.9467Q171.187 13.9389 170.753 13.0717Q170.32 12.1928 170.32 11.3139Q170.32 10.2124 171.011 9.57954Q171.714 8.94673 172.909 8.93501Q174.21 8.91158 174.82 9.56783Q175.429 10.2124 175.429 11.0444Q175.429 11.6772 175.007 12.4858Q174.585 13.2944 173.39 14.0444ZM43.0931 18.0639L39.7533 18.0639L39.7533 9.6147L43.0931 9.6147Q45.5775 9.6147 46.9955 10.6342Q48.4134 11.6538 48.4134 13.9038Q48.4134 16.142 46.9955 17.103Q45.5775 18.0639 43.0931 18.0639ZM170.062 24.0639L175.206 29.5249Q173.706 30.1342 172.23 30.1342Q170.507 30.1342 169.488 29.3139Q168.48 28.4819 168.48 27.0053Q168.48 25.9741 168.937 25.2827Q169.394 24.5913 170.062 24.0639Z" />
      </g>
      <g id="F" fill="#FFFFFF" fill-opacity="0">
        <path d="M2.25 75.9545L2.25 41.0444L26.8008 41.0444L26.8008 48.685L11.7305 48.685L11.7305 54.685L25.3008 54.685L25.3008 62.3139L11.7305 62.3139L11.7305 75.9545L2.25 75.9545Z" />
      </g>
      <g id="REDDY" fill="#FFFFFF">
        <path d="M30.2728 75.9545L30.2728 41.0444L45.3431 41.0444Q49.222 41.0444 52.14 42.4624Q55.058 43.8803 56.6751 46.5405Q58.2923 49.1889 58.2923 52.9038Q58.2923 56.5366 56.7103 59.0678Q55.14 61.5874 52.3626 62.935L59.4525 75.9545L49.1634 75.9545L43.0228 64.435L39.7533 64.435L39.7533 75.9545L30.2728 75.9545ZM62.3183 75.9545L62.3183 41.0444L87.4785 41.0444L87.4785 48.685L71.7988 48.685L71.7988 54.685L86.1777 54.685L86.1777 62.3139L71.7988 62.3139L71.7988 68.3139L87.4082 68.3139L87.4082 75.9545L62.3183 75.9545ZM92.182 75.9545L105.612 75.9545Q110.932 75.9545 114.834 73.8686Q118.737 71.7827 120.87 67.8686Q123.002 63.9545 123.002 58.5053Q123.002 53.0444 120.858 49.1303Q118.725 45.2163 114.788 43.1303Q110.862 41.0444 105.483 41.0444L92.182 41.0444L92.182 75.9545ZM140.794 75.9545L127.364 75.9545L127.364 41.0444L140.665 41.0444Q146.044 41.0444 149.969 43.1303Q153.907 45.2163 156.04 49.1303Q158.184 53.0444 158.184 58.5053Q158.184 63.9545 156.051 67.8686Q153.919 71.7827 150.016 73.8686Q146.114 75.9545 140.794 75.9545ZM171.686 41.0444L161.116 41.0444L173.936 64.9741L173.936 75.9545L183.347 75.9545L183.347 64.9741L196.155 41.0444L185.597 41.0444L178.776 55.2241L178.495 55.2241L171.686 41.0444ZM39.7533 57.0639L43.0931 57.0639Q45.5775 57.0639 46.9955 56.103Q48.4134 55.142 48.4134 52.9038Q48.4134 50.6538 46.9955 49.6342Q45.5775 48.6147 43.0931 48.6147L39.7533 48.6147L39.7533 57.0639ZM105.272 67.9038L101.663 67.9038L101.663 49.0952L105.002 49.0952Q107.733 49.0952 109.608 49.9272Q111.495 50.7592 112.467 52.81Q113.452 54.8491 113.452 58.5053Q113.452 62.1499 112.491 64.2006Q111.53 66.2397 109.69 67.0717Q107.862 67.9038 105.272 67.9038ZM136.844 67.9038L140.454 67.9038Q143.044 67.9038 144.872 67.0717Q146.712 66.2397 147.673 64.2006Q148.633 62.1499 148.633 58.5053Q148.633 54.8491 147.649 52.81Q146.676 50.7592 144.79 49.9272Q142.915 49.0952 140.184 49.0952L136.844 49.0952L136.844 67.9038Z" />
      </g>
    </g>
    <path d="M33.6496 94.9999L221.15 94.9999" id="Ligne-Copy" fill="none" fill-rule="evenodd" stroke="#FFFFFF" stroke-width="8" stroke-linecap="square" />
    <path d="M4.99997 0.999961L192.5 0.999961" id="Ligne" fill="none" fill-rule="evenodd" stroke="#FFFFFF" stroke-width="8" stroke-linecap="square" />
  </g>
</svg>